<?xml version="1.0" encoding="UTF-8" standalone="no"?>
<!-- Created with Inkscape (http://www.inkscape.org/) -->

<svg
   width="1440"
   height="295"
   viewBox="0 0 381 78.052081"
   version="1.1"
   id="svg1"
   inkscape:version="1.4.3 (0d15f75042, 2025-12-25)"
   sodipodi:docname="tomo-pipi-sike.svg"
   xml:space="preserve"
   xmlns:inkscape="http://www.inkscape.org/namespaces/inkscape"
   xmlns:sodipodi="http://sodipodi.sourceforge.net/DTD/sodipodi-0.dtd"
   xmlns="http://www.w3.org/2000/svg"
   xmlns:svg="http://www.w3.org/2000/svg"><sodipodi:namedview
     id="namedview1"
     pagecolor="#ffffff"
     bordercolor="#eeeeee"
     borderopacity="1"
     inkscape:showpageshadow="0"
     inkscape:pageopacity="0"
     inkscape:pagecheckerboard="0"
     inkscape:deskcolor="#505050"
     inkscape:document-units="mm"
     showgrid="true"
     inkscape:zoom="0.70710678"
     inkscape:cx="512.65242"
     inkscape:cy="128.69343"
     inkscape:window-width="1920"
     inkscape:window-height="1080"
     inkscape:window-x="0"
     inkscape:window-y="0"
     inkscape:window-maximized="0"
     inkscape:current-layer="layer1"><inkscape:grid
       id="grid1"
       units="px"
       originx="-63.5"
       originy="-31.75"
       spacingx="7.9375"
       spacingy="7.9375"
       empcolor="#000000"
       empopacity="0.30196078"
       color="#000000"
       opacity="0.14901961"
       empspacing="4"
       dotted="false"
       gridanglex="30"
       gridanglez="30"
       visible="true" /><inkscape:grid
       id="grid3"
       units="px"
       originx="-63.5"
       originy="-31.75"
       spacingx="3.96875"
       spacingy="3.96875"
       empcolor="#000000"
       empopacity="0.30196078"
       color="#000000"
       opacity="0.10196078"
       empspacing="8"
       dotted="false"
       gridanglex="30"
       gridanglez="30"
       visible="true" /></sodipodi:namedview><defs
     id="defs1" /><g
     inkscape:label="Layer 1"
     inkscape:groupmode="layer"
     id="layer1"
     transform="translate(-63.5,-31.75)"><path
       d="m 136.87883,75.083413 0.27867,-16.441737 13.26486,-15.549981 14.49102,16.553206 -0.27867,15.159838 z m -2.17366,4.291571 32.04745,-0.334408 c 1.39337,-0.278673 2.06219,-0.94749 2.06219,-2.117918 l 0.33441,-18.169512 c 0,-0.501613 -0.16721,-0.891755 -0.50162,-1.281898 L 151.98293,38.409981 c -0.44588,-0.501613 -1.00323,-0.724552 -1.61631,-0.724552 -0.61308,0 -1.11469,0.278674 -1.6163,0.780286 l -15.27131,18.002308 c -0.33441,0.390143 -0.50161,0.836021 -0.50161,1.337633 l -0.39015,19.395675 c 0,1.170429 0.72455,1.89498 2.11792,2.173653 z"
       id="text1"
       style="font-size:55.7347px;line-height:0em;font-family:'linja lipamanka';-inkscape-font-specification:'linja lipamanka';text-align:center;letter-spacing:0px;word-spacing:0px;text-anchor:middle;fill:#ff7800;stroke-width:2.38125;stroke-miterlimit:10;paint-order:markers stroke fill"
       aria-label="tomo" /><path
       d="m 254.55735,79.932331 c 1.39336,-0.278673 2.11792,-1.003224 2.11792,-2.173653 l -0.0557,-4.62598 4.51451,-0.111469 c 0.55735,0 1.05896,-0.222939 1.4491,-0.613082 0.39015,-0.390143 0.61309,-0.891755 0.61309,-1.449102 0,-0.557347 -0.16721,-1.058959 -0.55735,-1.504837 -0.39014,-0.445878 -0.89176,-0.668816 -1.56057,-0.668816 l -4.45878,0.05573 -0.0557,-5.684939 4.90465,-0.111469 c 1.39337,-0.278674 2.06218,-1.003225 2.06218,-2.173654 -0.27867,-1.393367 -0.94749,-2.062184 -2.00645,-2.062184 l -5.01612,0.11147 -0.0557,-5.462001 5.12759,0.05573 c 1.11469,0 1.78351,-0.668816 2.06218,-2.062184 0,-1.170429 -0.72455,-1.89498 -2.11792,-2.173653 l -5.12759,-0.05573 v -2.173653 c -0.22294,-1.393368 -0.89175,-2.062184 -2.00645,-2.062184 -1.50483,0.111469 -2.22939,0.836021 -2.22939,2.117919 v 2.006449 l -5.29479,-0.05574 c -1.17043,0 -1.89498,0.668816 -2.17365,2.062184 0.27867,1.449102 0.94749,2.173653 2.11791,2.173653 l 5.40627,0.05573 0.0557,5.684939 -5.18332,0.11147 c -0.61308,0 -1.05896,0.222938 -1.4491,0.613081 -0.39015,0.445878 -0.61309,0.94749 -0.61309,1.560572 0.27868,1.393367 1.00323,2.062184 2.17366,2.062184 l 5.12759,-0.11147 0.0557,5.68494 -4.57024,0.05573 c -1.39337,0.278674 -2.06219,1.003225 -2.06219,2.173654 0,0.613081 0.22294,1.114694 0.66882,1.504837 0.39014,0.390142 0.89176,0.613081 1.50484,0.613081 l 4.45877,-0.111469 0.0557,4.62598 c 0,0.613082 0.22294,1.114694 0.61308,1.504837 0.39014,0.390143 0.89176,0.613081 1.50484,0.613081 z m -5.68494,-36.227554 c 0.89175,0 1.67204,-0.334408 2.28512,-1.003225 0.61308,-0.613081 0.94749,-1.393367 0.94749,-2.340857 0,-0.94749 -0.33441,-1.727776 -0.94749,-2.396592 -0.61308,-0.668816 -1.39337,-1.003225 -2.28512,-1.003225 -0.89176,0 -1.67204,0.334409 -2.28513,1.003225 -0.61308,0.668816 -0.94748,1.449102 -0.94748,2.396592 0,0.94749 0.3344,1.727776 0.94748,2.340857 0.61309,0.668817 1.39337,1.003225 2.28513,1.003225 z m 10.86826,0.167204 c 0.89176,0 1.67205,-0.334408 2.28513,-1.003225 0.61308,-0.613081 0.94749,-1.393367 0.94749,-2.340857 0,-0.94749 -0.33441,-1.727776 -0.94749,-2.396592 -0.61308,-0.613082 -1.39337,-0.94749 -2.28513,-0.94749 -0.89175,0 -1.67204,0.334408 -2.28512,0.94749 -0.61308,0.668816 -0.94749,1.449102 -0.94749,2.396592 0,0.94749 0.33441,1.727776 0.94749,2.340857 0.61308,0.668817 1.39337,1.003225 2.28512,1.003225 z"
       id="text1-3"
       style="font-size:55.7347px;line-height:0em;font-family:'linja lipamanka';-inkscape-font-specification:'linja lipamanka';text-align:center;letter-spacing:0px;word-spacing:0px;text-anchor:middle;fill:#ff7800;stroke-width:2.38125;stroke-miterlimit:10;paint-order:markers stroke fill"
       aria-label="pipi" /><path
       d="m 358.30219,71.181984 c -1.83924,0 -3.56702,-0.557347 -5.18332,-1.616307 -1.61631,-1.058959 -2.95394,-2.61953 -3.90143,-4.737449 -1.00323,-2.117919 -1.50484,-4.737449 -1.50484,-7.914327 0,-1.281898 0.11147,-2.508062 0.27867,-3.567021 0.16721,-1.058959 0.39015,-2.062184 0.72456,-2.898204 0.3344,-0.836021 0.72455,-1.560572 1.22616,-2.173654 0.50161,-0.613081 1.05896,-1.114694 1.72777,-1.504837 0.61309,-0.390142 1.33764,-0.724551 2.11792,-0.891755 0.72455,-0.167204 1.56057,-0.278673 2.50806,-0.278673 h 1.1147 c 2.28512,0 4.23584,1.114694 5.85214,3.288347 1.56057,2.229388 2.34086,5.406266 2.34086,9.530634 0,4.068633 -0.72455,7.24551 -2.17365,9.419164 -1.44911,2.229388 -3.17688,3.344082 -5.1276,3.344082 z m -0.11147,4.235837 c 3.28835,0 6.07509,-1.504837 8.30447,-4.570246 2.22939,-3.065408 3.34409,-7.134041 3.34409,-12.205899 0,-5.239061 -1.17043,-9.419164 -3.45555,-12.596042 -2.28513,-3.121143 -5.2948,-4.681714 -8.97329,-4.681714 h -1.00323 c -3.95716,0 -7.0783,1.281898 -9.41916,3.901429 -2.34086,2.61953 -3.51129,6.520959 -3.51129,11.704286 0,3.78996 0.72456,7.078307 2.11792,9.809307 1.39337,2.731001 3.17688,4.848919 5.40627,6.353756 2.22939,1.504837 4.62598,2.285123 7.18977,2.285123 z m -0.94749,3.232612 c -2.8982,0 -5.6292,-0.780285 -8.13726,-2.396592 -2.5638,-1.616306 -4.62598,-4.012898 -6.18655,-7.189776 -1.61631,-3.176878 -2.3966,-7.134041 -2.3966,-11.871491 0,-4.458776 0.66882,-8.025797 2.00645,-10.756797 1.2819,-2.731 3.17688,-4.737449 5.62921,-6.019347 2.39659,-1.281898 5.2948,-2.006449 8.69461,-2.062184 4.1801,0.278673 7.46845,1.226163 9.97651,2.898204 2.50806,1.727776 4.29157,4.068633 5.35053,7.022572 1.05896,2.953939 1.61631,6.52096 1.61631,10.589593 0,3.845694 -0.78029,7.301246 -2.39659,10.255185 -1.61631,2.953939 -3.67849,5.294796 -6.18655,6.966837 -2.50806,1.727776 -5.18333,2.563796 -7.97007,2.563796 z m -0.0557,4.235838 c 3.73422,0 7.13404,-1.05896 10.31092,-3.176878 3.17688,-2.117919 5.68494,-5.016123 7.63565,-8.638879 1.95072,-3.622755 2.89821,-7.691388 2.89821,-12.205899 0,-4.403041 -0.66882,-8.415939 -1.95072,-12.038695 -1.2819,-3.622755 -3.45555,-6.576694 -6.52096,-8.861817 -3.06541,-2.229388 -7.24551,-3.511286 -12.5403,-3.845694 -3.78996,0 -7.24552,0.780285 -10.36666,2.285122 -3.17688,1.560572 -5.68494,4.012899 -7.52418,7.412715 -1.89498,3.399817 -2.84247,7.858593 -2.84247,13.376328 0,5.294797 1.00322,9.865042 2.95394,13.710736 1.95071,3.845694 4.51451,6.799634 7.69139,8.861817 3.17687,2.062184 6.57669,3.121144 10.25518,3.121144 z"
       id="text1-3-2"
       style="font-size:55.7347px;line-height:0em;font-family:'linja lipamanka';-inkscape-font-specification:'linja lipamanka';text-align:center;letter-spacing:0px;word-spacing:0px;text-anchor:middle;fill:#ff7800;stroke-width:2.38125;stroke-miterlimit:10;paint-order:markers stroke fill"
       aria-label="sike" /><path
       d="m 136.28685,103.56917 q -1.55575,0 -2.31775,-0.77787 -0.762,-0.77788 -0.762,-2.27013 v -3.381372 h -1.49225 v -1.49225 h 1.49225 v -2.31775 h 1.98438 v 2.31775 h 2.3495 v 1.49225 h -2.3495 v 3.270252 q 0,0.762 0.33337,1.143 0.33338,0.381 1.0795,0.381 0.22225,0 0.46038,-0.0476 0.23812,-0.0635 0.49212,-0.127 l 0.30163,1.4605 q -0.28575,0.15875 -0.73025,0.254 -0.42863,0.0952 -0.84138,0.0952 z m 6.00078,0 q -1.2065,0 -2.0955,-0.49212 -0.889,-0.49213 -1.38113,-1.397 -0.49212,-0.92075 -0.49212,-2.159002 0,-1.23825 0.49212,-2.143125 0.49213,-0.904875 1.38113,-1.397 0.889,-0.492125 2.0955,-0.492125 1.2065,0 2.0955,0.492125 0.889,0.492125 1.38112,1.397 0.49213,0.904875 0.49213,2.143125 0,1.238252 -0.49213,2.159002 -0.49212,0.90487 -1.38112,1.397 -0.889,0.49212 -2.0955,0.49212 z m 0,-1.50812 q 0.889,0 1.42875,-0.635 0.53975,-0.65088 0.53975,-1.905002 0,-1.27 -0.53975,-1.889125 -0.53975,-0.635 -1.42875,-0.635 -0.889,0 -1.42875,0.635 -0.53975,0.619125 -0.53975,1.889125 0,1.254122 0.53975,1.905002 0.53975,0.635 1.42875,0.635 z m 5.63563,1.34937 v -7.762872 h 1.93675 v 1.55575 h -0.17463 q 0.20638,-0.53975 0.5715,-0.92075 0.36513,-0.381 0.87313,-0.587375 0.508,-0.206375 1.12712,-0.206375 0.93663,0 1.53988,0.4445 0.60325,0.4445 0.84137,1.36525 h -0.22225 q 0.3175,-0.841375 1.04775,-1.317625 0.73025,-0.492125 1.68275,-0.492125 0.889,0 1.4605,0.34925 0.58738,0.34925 0.87313,1.063625 0.28575,0.6985 0.28575,1.778 v 4.730747 h -1.98438 v -4.651372 q 0,-0.889 -0.30162,-1.30175 -0.28575,-0.41275 -0.98425,-0.41275 -0.508,0 -0.889,0.254 -0.381,0.238125 -0.58738,0.6985 -0.1905,0.460375 -0.1905,1.11125 v 4.302122 h -1.98437 v -4.651372 q 0,-0.889 -0.30163,-1.30175 -0.28575,-0.41275 -0.96837,-0.41275 -0.52388,0 -0.90488,0.254 -0.36512,0.238125 -0.5715,0.6985 -0.1905,0.460375 -0.1905,1.11125 v 4.302122 z m 17.43076,0.15875 q -1.2065,0 -2.0955,-0.49212 -0.889,-0.49213 -1.38113,-1.397 -0.49212,-0.92075 -0.49212,-2.159002 0,-1.23825 0.49212,-2.143125 0.49213,-0.904875 1.38113,-1.397 0.889,-0.492125 2.0955,-0.492125 1.2065,0 2.0955,0.492125 0.889,0.492125 1.38112,1.397 0.49213,0.904875 0.49213,2.143125 0,1.238252 -0.49213,2.159002 -0.49212,0.90487 -1.38112,1.397 -0.889,0.49212 -2.0955,0.49212 z m 0,-1.50812 q 0.889,0 1.42875,-0.635 0.53975,-0.65088 0.53975,-1.905002 0,-1.27 -0.53975,-1.889125 -0.53975,-0.635 -1.42875,-0.635 -0.889,0 -1.42875,0.635 -0.53975,0.619125 -0.53975,1.889125 0,1.254122 0.53975,1.905002 0.53975,0.635 1.42875,0.635 z"
       id="text2"
       style="font-weight:bold;font-size:15.875px;line-height:0em;font-family:'Nunito Sans';-inkscape-font-specification:'Nunito Sans Bold';text-align:center;letter-spacing:0px;word-spacing:0px;text-anchor:middle;stroke-width:2.38125;stroke-miterlimit:10;paint-order:markers stroke fill"
       aria-label="tomo" /><path
       d="M 241.45876,106.26792 V 95.647548 h 1.93675 v 1.635125 h -0.15875 q 0.23812,-0.809625 0.96837,-1.30175 0.74613,-0.492125 1.73038,-0.492125 1.016,0 1.778,0.492125 0.77787,0.492125 1.2065,1.397 0.42862,0.889 0.42862,2.143125 0,1.238252 -0.42862,2.159002 -0.42863,0.90487 -1.19063,1.397 -0.762,0.49212 -1.79387,0.49212 -0.96838,0 -1.69863,-0.47625 -0.73025,-0.49212 -0.98425,-1.27 h 0.1905 v 4.445 z m 3.92112,-4.20687 q 0.889,0 1.42875,-0.635 0.53975,-0.65088 0.53975,-1.905002 0,-1.27 -0.53975,-1.889125 -0.53975,-0.635 -1.42875,-0.635 -0.889,0 -1.42875,0.635 -0.53975,0.619125 -0.53975,1.889125 0,1.254122 0.53975,1.905002 0.53975,0.635 1.42875,0.635 z m 5.47688,-8.080377 v -1.93675 h 2.2225 v 1.93675 z m 0.127,9.429747 v -7.762872 h 1.98438 v 7.762872 z m 4.04812,2.8575 V 95.647548 h 1.93675 v 1.635125 h -0.15875 q 0.23812,-0.809625 0.96837,-1.30175 0.74613,-0.492125 1.73038,-0.492125 1.016,0 1.778,0.492125 0.77787,0.492125 1.2065,1.397 0.42862,0.889 0.42862,2.143125 0,1.238252 -0.42862,2.159002 -0.42863,0.90487 -1.19063,1.397 -0.762,0.49212 -1.79387,0.49212 -0.96838,0 -1.69863,-0.47625 -0.73025,-0.49212 -0.98425,-1.27 h 0.1905 v 4.445 z m 3.92112,-4.20687 q 0.889,0 1.42875,-0.635 0.53975,-0.65088 0.53975,-1.905002 0,-1.27 -0.53975,-1.889125 -0.53975,-0.635 -1.42875,-0.635 -0.889,0 -1.42875,0.635 -0.53975,0.619125 -0.53975,1.889125 0,1.254122 0.53975,1.905002 0.53975,0.635 1.42875,0.635 z m 5.47688,-8.080377 v -1.93675 h 2.2225 v 1.93675 z m 0.127,9.429747 v -7.762872 h 1.98438 v 7.762872 z"
       id="text2-2"
       style="font-weight:bold;font-size:15.875px;line-height:0em;font-family:'Nunito Sans';-inkscape-font-specification:'Nunito Sans Bold';text-align:center;letter-spacing:0px;word-spacing:0px;text-anchor:middle;stroke-width:2.38125;stroke-miterlimit:10;paint-order:markers stroke fill"
       aria-label="pipi" /><path
       d="m 346.6862,103.56917 q -0.65088,0 -1.27,-0.11112 -0.60325,-0.11113 -1.11125,-0.30163 -0.508,-0.20637 -0.889,-0.508 l 0.508,-1.30175 q 0.39687,0.254 0.85725,0.4445 0.46037,0.1905 0.9525,0.28575 0.49212,0.0952 0.96837,0.0952 0.762,0 1.12713,-0.254 0.381,-0.26987 0.381,-0.6985 0,-0.36512 -0.254,-0.55562 -0.23813,-0.20638 -0.73025,-0.30163 l -1.5875,-0.30162 q -0.98425,-0.190502 -1.50813,-0.714377 -0.508,-0.53975 -0.508,-1.381125 0,-0.762 0.41275,-1.317625 0.42863,-0.555625 1.17475,-0.85725 0.74613,-0.301625 1.7145,-0.301625 0.55563,0 1.0795,0.111125 0.52388,0.09525 0.98425,0.301625 0.47625,0.1905 0.8255,0.508 l -0.53975,1.30175 q -0.30162,-0.254 -0.6985,-0.428625 -0.39687,-0.1905 -0.8255,-0.28575 -0.41275,-0.111125 -0.80962,-0.111125 -0.77788,0 -1.15888,0.269875 -0.36512,0.269875 -0.36512,0.714375 0,0.333375 0.22225,0.555625 0.22225,0.22225 0.68262,0.301625 l 1.5875,0.301625 q 1.03188,0.1905 1.55575,0.6985 0.53975,0.507997 0.53975,1.365247 0,0.77788 -0.41275,1.3335 -0.41275,0.55563 -1.15887,0.85725 -0.74613,0.28575 -1.74625,0.28575 z m 4.77839,-9.588497 v -1.93675 h 2.2225 v 1.93675 z m 0.127,9.429747 v -7.762872 h 1.98437 v 7.762872 z m 4.04811,0 V 92.218548 h 1.98437 v 6.731 h 0.0317 l 3.12738,-3.302 h 2.39712 l -3.90525,4.1275 v -0.8255 l 4.1275,4.460872 h -2.42887 l -3.31788,-3.460747 h -0.0317 v 3.460747 z m 12.17611,0.15875 q -1.31763,0 -2.27013,-0.49212 -0.9525,-0.49213 -1.47637,-1.397 -0.508,-0.90488 -0.508,-2.143127 0,-1.2065 0.49212,-2.111375 0.508,-0.904875 1.38113,-1.412875 0.889,-0.523875 2.01612,-0.523875 1.11125,0 1.905,0.47625 0.79375,0.47625 1.22238,1.349375 0.4445,0.873125 0.4445,2.079625 v 0.587375 h -5.85788 v -1.143 h 4.46088 l -0.254,0.238125 q 0,-1.0795 -0.47625,-1.651 -0.47625,-0.587375 -1.36525,-0.587375 -0.66675,0 -1.143,0.3175 -0.46038,0.301625 -0.71438,0.873125 -0.23812,0.555625 -0.23812,1.3335 v 0.111125 q 0,0.873127 0.26987,1.444627 0.26988,0.5715 0.80963,0.85725 0.53975,0.28575 1.3335,0.28575 0.65087,0 1.30175,-0.1905 0.65087,-0.20638 1.19062,-0.635 l 0.55563,1.3335 q -0.55563,0.46037 -1.397,0.73025 -0.84138,0.26987 -1.68275,0.26987 z"
       id="text2-2-2"
       style="font-weight:bold;font-size:15.875px;line-height:0em;font-family:'Nunito Sans';-inkscape-font-specification:'Nunito Sans Bold';text-align:center;letter-spacing:0px;word-spacing:0px;text-anchor:middle;stroke-width:2.38125;stroke-miterlimit:10;paint-order:markers stroke fill"
       aria-label="sike" /></g></svg>
