<?xml version="1.0" encoding="UTF-8" standalone="no"?>
<!-- Created with Inkscape (http://www.inkscape.org/) -->

<svg
   width="1440"
   height="310"
   viewBox="0 0 381 82.020831"
   version="1.1"
   id="svg1"
   inkscape:version="1.4.3 (0d15f75042, 2025-12-25)"
   sodipodi:docname="tomopipi-pipisike.svg"
   xml:space="preserve"
   xmlns:inkscape="http://www.inkscape.org/namespaces/inkscape"
   xmlns:sodipodi="http://sodipodi.sourceforge.net/DTD/sodipodi-0.dtd"
   xmlns="http://www.w3.org/2000/svg"
   xmlns:svg="http://www.w3.org/2000/svg"><sodipodi:namedview
     id="namedview1"
     pagecolor="#ffffff"
     bordercolor="#eeeeee"
     borderopacity="1"
     inkscape:showpageshadow="0"
     inkscape:pageopacity="0"
     inkscape:pagecheckerboard="0"
     inkscape:deskcolor="#505050"
     inkscape:document-units="mm"
     showgrid="true"
     inkscape:zoom="1"
     inkscape:cx="731.5"
     inkscape:cy="266"
     inkscape:window-width="1920"
     inkscape:window-height="1080"
     inkscape:window-x="0"
     inkscape:window-y="0"
     inkscape:window-maximized="0"
     inkscape:current-layer="layer1"><inkscape:grid
       id="grid1"
       units="px"
       originx="-63.5"
       originy="-31.75"
       spacingx="7.9375"
       spacingy="7.9375"
       empcolor="#000000"
       empopacity="0.30196078"
       color="#000000"
       opacity="0.14901961"
       empspacing="4"
       dotted="false"
       gridanglex="30"
       gridanglez="30"
       visible="true" /><inkscape:grid
       id="grid3"
       units="px"
       originx="-63.5"
       originy="-31.75"
       spacingx="3.96875"
       spacingy="3.96875"
       empcolor="#000000"
       empopacity="0.30196078"
       color="#000000"
       opacity="0.10196078"
       empspacing="8"
       dotted="false"
       gridanglex="30"
       gridanglez="30"
       visible="true" /></sodipodi:namedview><defs
     id="defs1" /><g
     inkscape:label="Layer 1"
     inkscape:groupmode="layer"
     id="layer1"
     transform="translate(-63.5,-31.75)"><path
       d="m 167.64877,85.907546 0.50162,-23.798716 c 1.39336,-1.504837 4.57024,-4.848919 9.53063,-10.032246 0,-0.05573 0.44588,-0.557347 1.39337,-1.504837 l 0.11147,-0.167204 c 0.0557,0 0.11147,-0.05573 0.11147,-0.11147 l 0.78028,-0.83602 c 0.0557,-0.05573 3.28835,-3.399817 9.69784,-10.143715 l 23.63151,24.188859 -0.44588,21.959472 z m -2.22938,4.514511 49.77108,-0.501612 c 0.61308,0 1.1147,-0.222939 1.56057,-0.613082 0.39015,-0.390143 0.61309,-0.94749 0.66882,-1.560572 l 0.50161,-25.136349 c 0,-0.557347 -0.22294,-1.114694 -0.61308,-1.616306 L 191.33602,34.464419 c -0.44588,-0.445878 -1.00322,-0.668817 -1.61631,-0.668817 -0.61308,0 -1.11469,0.222939 -1.6163,0.724551 l -23.85445,25.080615 c -0.33441,0.445878 -0.55735,0.94749 -0.61309,1.504837 l -0.50161,27.142799 c 0,0.613081 0.22294,1.114694 0.66882,1.504836 0.44588,0.445878 1.00322,0.668817 1.61631,0.668817 z m 30.93276,-29.372178 c 1.00322,0 1.83924,-0.334408 2.56379,-1.05896 0.66882,-0.724551 1.00323,-1.560571 1.00323,-2.508061 0,-1.003225 -0.33441,-1.839245 -1.00323,-2.563796 -0.72455,-0.668817 -1.56057,-1.003225 -2.56379,-1.003225 -0.94749,0 -1.78351,0.334408 -2.50807,1.003225 -0.72455,0.724551 -1.05895,1.560571 -1.05895,2.563796 0,0.94749 0.3344,1.78351 1.05895,2.508061 0.72456,0.724552 1.56058,1.05896 2.50807,1.05896 z m -5.462,19.562879 c 0.61308,0 1.17042,-0.222939 1.6163,-0.668816 0.39014,-0.445878 0.61308,-0.94749 0.61308,-1.560572 l -0.0557,-2.898204 4.40304,-0.05574 c 0.61308,0 1.17043,-0.222939 1.61631,-0.724551 0.39014,-0.445878 0.61308,-0.94749 0.61308,-1.560571 0,-0.613082 -0.22294,-1.170429 -0.66882,-1.616307 -0.44588,-0.390143 -1.00322,-0.613081 -1.6163,-0.613081 l -4.40305,0.05573 -0.0557,-1.950714 h 5.01612 c 1.4491,-0.222939 2.17366,-0.94749 2.17366,-2.229388 0,-0.613082 -0.22294,-1.170429 -0.61309,-1.616306 -0.44587,-0.390143 -1.00322,-0.613082 -1.6163,-0.613082 l -5.01613,-0.05573 -0.0557,-3.009674 c 0,-0.613081 -0.22294,-1.170428 -0.66882,-1.616306 -0.44587,-0.390143 -1.00322,-0.613082 -1.6163,-0.613082 -1.50484,0.278674 -2.22939,1.05896 -2.22939,2.285123 l 0.0557,2.898204 -6.01934,-0.05573 c -0.61309,0 -1.17043,0.222939 -1.61631,0.613081 -0.44588,0.445878 -0.66882,1.003225 -0.66882,1.616307 0,0.613081 0.22294,1.170428 0.66882,1.616306 0.44588,0.445878 0.94749,0.668816 1.56057,0.668816 l 6.13082,0.05573 0.0557,2.062184 -5.07185,0.05573 c -0.61309,0 -1.17043,0.222938 -1.56058,0.613081 -0.44587,0.390143 -0.66881,0.891756 -0.66881,1.504837 0.11147,1.560572 0.83602,2.340858 2.22939,2.340858 l 5.12759,-0.05573 0.0557,2.953939 c 0,0.613082 0.22294,1.114694 0.66882,1.504837 0.39014,0.445877 0.89175,0.668816 1.50484,0.668816 z m -6.4095,-19.785818 c 0.94749,0 1.78352,-0.334408 2.50807,-1.058959 0.72455,-0.668817 1.05896,-1.504837 1.05896,-2.508062 0,-0.94749 -0.33441,-1.78351 -1.05896,-2.508061 -0.72455,-0.724551 -1.56058,-1.05896 -2.50807,-1.05896 -1.00322,0 -1.83924,0.334409 -2.50806,1.05896 -0.72455,0.724551 -1.05896,1.560571 -1.05896,2.508061 0,1.003225 0.33441,1.839245 1.05896,2.508062 0.66882,0.724551 1.50484,1.058959 2.50806,1.058959 z"
       id="text1"
       style="font-size:55.7347px;line-height:0em;font-family:'linja lipamanka';-inkscape-font-specification:'linja lipamanka';text-align:center;letter-spacing:0px;word-spacing:0px;text-anchor:middle;fill:#ff7800;stroke-width:2.38125;stroke-miterlimit:10;paint-order:markers stroke fill"
       aria-label="tomo-pipi" /><path
       d="m 310.31022,70.469034 c 1.00323,0 1.83925,-0.334408 2.5638,-1.058959 0.66882,-0.724551 1.00322,-1.560571 1.00322,-2.508061 0,-1.003225 -0.3344,-1.839245 -1.00322,-2.563796 -0.72455,-0.668817 -1.56057,-1.003225 -2.5638,-1.003225 -0.94749,0 -1.78351,0.334408 -2.50806,1.003225 -0.72455,0.724551 -1.05896,1.560571 -1.05896,2.563796 0,0.94749 0.33441,1.78351 1.05896,2.508061 0.72455,0.724551 1.56057,1.058959 2.50806,1.058959 z m 13.87794,0.11147 c 0.94749,0 1.78351,-0.334408 2.50807,-1.058959 0.72455,-0.668817 1.05895,-1.504837 1.05895,-2.508062 0,-0.94749 -0.3344,-1.78351 -1.05895,-2.508061 -0.72456,-0.724551 -1.56058,-1.05896 -2.50807,-1.05896 -1.00322,0 -1.83924,0.334409 -2.50806,1.05896 -0.72455,0.724551 -1.05896,1.560571 -1.05896,2.508061 0,1.003225 0.33441,1.839245 1.05896,2.508062 0.66882,0.724551 1.50484,1.058959 2.50806,1.058959 z m -6.79963,18.838328 c 0.61308,0 1.17043,-0.222939 1.61631,-0.668816 0.39014,-0.445878 0.61308,-1.003225 0.61308,-1.616306 v -1.504837 l 4.96039,-0.11147 c 1.4491,-0.222939 2.17365,-0.94749 2.17365,-2.173653 -0.11147,-1.504837 -0.83602,-2.285123 -2.17365,-2.285123 l -5.01613,0.05573 v -2.563796 l 5.1276,0.111469 c 1.39336,-0.111469 2.11791,-0.83602 2.28512,-2.229388 -0.11147,-1.393367 -0.83602,-2.117918 -2.22939,-2.285122 l -5.23906,-0.05573 V 70.4133 c 0,-0.613082 -0.22294,-1.170429 -0.61308,-1.616307 -0.44588,-0.390142 -1.00323,-0.613081 -1.61631,-0.613081 -0.61308,0 -1.17043,0.222939 -1.56057,0.613081 -0.44588,0.390143 -0.66882,0.891756 -0.66882,1.504837 v 3.734225 l -5.90787,-0.111469 c -1.33764,0.111469 -2.06219,0.83602 -2.22939,2.173653 0.11147,1.393368 0.83602,2.117919 2.22939,2.285123 l 5.90787,0.111469 0.0557,0.613082 v 2.117918 l -4.68172,0.05573 c -1.4491,0.278674 -2.17365,1.003225 -2.17365,2.173653 0.1672,1.560572 0.89176,2.340858 2.28512,2.340858 l 4.62598,-0.11147 v 1.504837 c 0,0.613082 0.22294,1.114694 0.66882,1.560572 0.44588,0.445877 0.94749,0.668816 1.56057,0.668816 z m 1.50484,-38.679881 c -3.17688,0 -6.07508,-0.390143 -8.80609,-1.170429 -0.83602,-0.334408 -1.39336,-0.613081 -1.78351,-0.83602 -0.39014,-0.222939 -0.61308,-0.390143 -0.66881,-0.557347 -0.0557,-0.167204 -0.11147,-0.222939 -0.11147,-0.278674 l -0.0557,-0.167204 c 0,-0.167204 0.55735,-0.557347 1.67205,-1.058959 1.83924,-0.613082 4.51451,-0.891755 8.13726,-0.891755 2.731,0 5.12759,0.334408 7.07831,0.94749 0.94749,0.390142 1.56057,0.780285 1.78351,1.058959 0.22294,0.278673 0.33441,0.501612 0.33441,0.557347 0,0.05573 -0.0557,0.167204 -0.11147,0.334408 -0.11147,0.167204 -0.27868,0.334408 -0.50162,0.501612 -0.27867,0.167204 -0.61308,0.390143 -1.00322,0.557347 -0.39014,0.167204 -0.89175,0.334409 -1.4491,0.501613 -0.55735,0.167204 -1.22617,0.278673 -1.95072,0.334408 -0.72455,0.111469 -1.6163,0.167204 -2.56379,0.167204 z m -0.39015,4.514511 c 2.11792,0 4.12437,-0.222939 6.07509,-0.724552 1.89498,-0.501612 3.45555,-1.226163 4.62598,-2.285122 1.17043,-1.058959 1.78351,-2.396592 1.78351,-4.012899 0,-1.727775 -0.66882,-3.065408 -2.06219,-4.124367 -1.39336,-1.003225 -3.06541,-1.727776 -5.07185,-2.173654 -2.06219,-0.390142 -4.0129,-0.613081 -5.96362,-0.613081 h -1.56057 c -2.39659,0 -4.57024,0.167204 -6.57669,0.557347 -2.06219,0.390143 -3.67849,1.114694 -4.90466,2.062184 -1.22616,0.94749 -1.83924,2.285122 -1.83924,3.957163 0,1.839245 0.83602,3.288348 2.50806,4.347307 1.67204,1.058959 3.73422,1.839245 6.13082,2.285122 2.39659,0.501613 4.68171,0.724552 6.85536,0.724552 z m -0.89175,2.117918 c -2.95394,0 -5.74067,-0.390143 -8.47167,-1.114694 -2.73101,-0.724551 -4.90466,-1.78351 -6.63243,-3.232612 -1.72778,-1.449103 -2.61953,-3.232613 -2.61953,-5.350532 0,-1.504836 0.3344,-2.675265 1.00322,-3.622755 0.66882,-0.94749 1.72778,-1.727776 3.23261,-2.452327 3.06541,-1.449102 7.46845,-2.229388 13.09766,-2.285122 3.51128,0.05573 6.46522,0.390142 8.80608,0.891755 2.34086,0.501612 4.1801,1.170428 5.51773,2.006449 1.33764,0.83602 2.28513,1.78351 2.84247,2.84247 0.50162,1.058959 0.78029,2.229388 0.78029,3.455551 0,2.340857 -1.72778,4.403041 -5.18333,6.186552 -3.45555,1.78351 -7.57992,2.675265 -12.3731,2.675265 z m 0,4.514511 c 3.51129,0 6.96684,-0.557347 10.36665,-1.616306 3.39982,-1.05896 6.18656,-2.563797 8.36021,-4.570246 2.17365,-1.950714 3.28835,-4.347306 3.28835,-7.189776 0,-1.89498 -0.44588,-3.734225 -1.33764,-5.462001 -0.89175,-1.727775 -2.28512,-3.232612 -4.12436,-4.458775 -1.50484,-1.003225 -3.73423,-1.89498 -6.68817,-2.675266 -2.95394,-0.724551 -6.35375,-1.114694 -10.25518,-1.114694 -5.96362,0 -10.97974,0.891755 -15.04837,2.731 -2.06219,1.003225 -3.67849,2.340858 -4.90466,4.068633 -1.28189,1.727776 -1.89498,3.78996 -1.89498,6.075082 0,3.065409 1.05896,5.68494 3.17688,7.747124 2.11792,2.117918 4.84892,3.734225 8.24874,4.793184 3.39981,1.114694 6.96684,1.672041 10.81253,1.672041 z"
       id="text1-3"
       style="font-size:55.7347px;line-height:0em;font-family:'linja lipamanka';-inkscape-font-specification:'linja lipamanka';text-align:center;letter-spacing:0px;word-spacing:0px;text-anchor:middle;fill:#ff7800;stroke-width:2.38125;stroke-miterlimit:10;paint-order:markers stroke fill"
       aria-label="pipi+sike" /><path
       d="m 160.25811,107.315 q -1.55575,0 -2.31775,-0.77787 -0.762,-0.77788 -0.762,-2.27013 v -3.38137 h -1.49225 v -1.492255 h 1.49225 v -2.31775 h 1.98437 v 2.31775 h 2.3495 v 1.492255 h -2.3495 v 3.27024 q 0,0.762 0.33338,1.143 0.33337,0.381 1.0795,0.381 0.22225,0 0.46037,-0.0476 0.23813,-0.0635 0.49213,-0.127 l 0.30162,1.4605 q -0.28575,0.15875 -0.73025,0.254 -0.42862,0.0952 -0.84137,0.0952 z m 6.00077,0 q -1.2065,0 -2.0955,-0.49213 -0.889,-0.49212 -1.38112,-1.39699 -0.49213,-0.92075 -0.49213,-2.159 0,-1.23825 0.49213,-2.14313 0.49212,-0.90488 1.38112,-1.397 0.889,-0.492125 2.0955,-0.492125 1.2065,0 2.0955,0.492125 0.889,0.49212 1.38113,1.397 0.49212,0.90488 0.49212,2.14313 0,1.23825 -0.49212,2.159 -0.49213,0.90487 -1.38113,1.39699 -0.889,0.49213 -2.0955,0.49213 z m 0,-1.50812 q 0.889,0 1.42875,-0.635 0.53975,-0.65088 0.53975,-1.905 0,-1.27 -0.53975,-1.88913 -0.53975,-0.635 -1.42875,-0.635 -0.889,0 -1.42875,0.635 -0.53975,0.61913 -0.53975,1.88913 0,1.25412 0.53975,1.905 0.53975,0.635 1.42875,0.635 z m 5.63563,1.34937 v -7.762875 h 1.93675 v 1.555745 h -0.17462 q 0.20637,-0.53975 0.5715,-0.92075 0.36512,-0.380995 0.87312,-0.58737 0.508,-0.206375 1.12713,-0.206375 0.93662,0 1.53987,0.4445 0.60325,0.444505 0.84138,1.365255 h -0.22225 q 0.3175,-0.84138 1.04775,-1.31763 0.73025,-0.492125 1.68275,-0.492125 0.889,0 1.4605,0.34925 0.58737,0.34925 0.87312,1.063625 0.28575,0.6985 0.28575,1.778 v 4.73075 h -1.98437 v -4.65138 q 0,-0.88899 -0.30163,-1.30174 -0.28575,-0.41276 -0.98425,-0.41276 -0.508,0 -0.889,0.25401 -0.381,0.23812 -0.58737,0.69849 -0.1905,0.46038 -0.1905,1.11125 v 4.30213 h -1.98438 v -4.65138 q 0,-0.88899 -0.30162,-1.30174 -0.28575,-0.41276 -0.96838,-0.41276 -0.52387,0 -0.90487,0.25401 -0.36513,0.23812 -0.5715,0.69849 -0.1905,0.46038 -0.1905,1.11125 v 4.30213 z m 17.43076,0.15875 q -1.2065,0 -2.0955,-0.49213 -0.889,-0.49212 -1.38112,-1.39699 -0.49213,-0.92075 -0.49213,-2.159 0,-1.23825 0.49213,-2.14313 0.49212,-0.90488 1.38112,-1.397 0.889,-0.492125 2.0955,-0.492125 1.2065,0 2.0955,0.492125 0.889,0.49212 1.38113,1.397 0.49212,0.90488 0.49212,2.14313 0,1.23825 -0.49212,2.159 -0.49213,0.90487 -1.38113,1.39699 -0.889,0.49213 -2.0955,0.49213 z m 0,-1.50812 q 0.889,0 1.42875,-0.635 0.53975,-0.65088 0.53975,-1.905 0,-1.27 -0.53975,-1.88913 -0.53975,-0.635 -1.42875,-0.635 -0.889,0 -1.42875,0.635 -0.53975,0.61913 -0.53975,1.88913 0,1.25412 0.53975,1.905 0.53975,0.635 1.42875,0.635 z m 9.89014,4.20687 V 99.393375 h 1.93675 v 1.635125 h -0.15875 q 0.23812,-0.80963 0.96837,-1.30175 0.74613,-0.492125 1.73038,-0.492125 1.016,0 1.778,0.492125 0.77787,0.49212 1.2065,1.397 0.42862,0.889 0.42862,2.14313 0,1.23825 -0.42862,2.159 -0.42863,0.90487 -1.19063,1.39699 -0.762,0.49213 -1.79387,0.49213 -0.96838,0 -1.69863,-0.47625 -0.73025,-0.49212 -0.98425,-1.27 h 0.1905 v 4.445 z m 3.92112,-4.20687 q 0.889,0 1.42875,-0.635 0.53975,-0.65088 0.53975,-1.905 0,-1.27 -0.53975,-1.88913 -0.53975,-0.635 -1.42875,-0.635 -0.889,0 -1.42875,0.635 -0.53975,0.61913 -0.53975,1.88913 0,1.25412 0.53975,1.905 0.53975,0.635 1.42875,0.635 z m 5.47688,-8.08038 v -1.93675 h 2.2225 v 1.93675 z m 0.127,9.42975 v -7.762875 h 1.98438 v 7.762875 z m 4.04811,2.8575 V 99.393375 h 1.93675 v 1.635125 h -0.15875 q 0.23813,-0.80963 0.96838,-1.30175 0.74612,-0.492125 1.73037,-0.492125 1.016,0 1.778,0.492125 0.77788,0.49212 1.2065,1.397 0.42863,0.889 0.42863,2.14313 0,1.23825 -0.42863,2.159 -0.42862,0.90487 -1.19062,1.39699 -0.762,0.49213 -1.79388,0.49213 -0.96837,0 -1.69862,-0.47625 -0.73025,-0.49212 -0.98425,-1.27 h 0.1905 v 4.445 z m 3.92113,-4.20687 q 0.889,0 1.42875,-0.635 0.53975,-0.65088 0.53975,-1.905 0,-1.27 -0.53975,-1.88913 -0.53975,-0.635 -1.42875,-0.635 -0.889,0 -1.42875,0.635 -0.53975,0.61913 -0.53975,1.88913 0,1.25412 0.53975,1.905 0.53975,0.635 1.42875,0.635 z m 5.47688,-8.08038 v -1.93675 h 2.2225 v 1.93675 z m 0.127,9.42975 v -7.762875 h 1.98438 v 7.762875 z"
       id="text2"
       style="font-weight:bold;font-size:15.875px;line-height:0em;font-family:'Nunito Sans';-inkscape-font-specification:'Nunito Sans Bold';text-align:center;letter-spacing:0px;word-spacing:0px;text-anchor:middle;stroke-width:2.38125;stroke-miterlimit:10;paint-order:markers stroke fill"
       aria-label="tomo pipi" /><path
       d="M 288.44082,110.01375 V 99.393375 h 1.93675 v 1.635125 h -0.15875 q 0.23813,-0.80963 0.96838,-1.30175 0.74612,-0.492125 1.73037,-0.492125 1.016,0 1.778,0.492125 0.77788,0.49212 1.2065,1.397 0.42863,0.889 0.42863,2.14313 0,1.23825 -0.42863,2.159 -0.42862,0.90487 -1.19062,1.39699 -0.762,0.49213 -1.79388,0.49213 -0.96837,0 -1.69862,-0.47625 -0.73025,-0.49212 -0.98425,-1.27 h 0.1905 v 4.445 z m 3.92113,-4.20687 q 0.889,0 1.42875,-0.635 0.53975,-0.65088 0.53975,-1.905 0,-1.27 -0.53975,-1.88913 -0.53975,-0.635 -1.42875,-0.635 -0.889,0 -1.42875,0.635 -0.53975,0.61913 -0.53975,1.88913 0,1.25412 0.53975,1.905 0.53975,0.635 1.42875,0.635 z m 5.47688,-8.08038 v -1.93675 h 2.2225 v 1.93675 z m 0.127,9.42975 v -7.762875 h 1.98438 v 7.762875 z m 4.04811,2.8575 V 99.393375 h 1.93675 v 1.635125 h -0.15875 q 0.23813,-0.80963 0.96838,-1.30175 0.74612,-0.492125 1.73037,-0.492125 1.016,0 1.778,0.492125 0.77788,0.49212 1.2065,1.397 0.42863,0.889 0.42863,2.14313 0,1.23825 -0.42863,2.159 -0.42862,0.90487 -1.19062,1.39699 -0.762,0.49213 -1.79388,0.49213 -0.96837,0 -1.69862,-0.47625 -0.73025,-0.49212 -0.98425,-1.27 h 0.1905 v 4.445 z m 3.92113,-4.20687 q 0.889,0 1.42875,-0.635 0.53975,-0.65088 0.53975,-1.905 0,-1.27 -0.53975,-1.88913 -0.53975,-0.635 -1.42875,-0.635 -0.889,0 -1.42875,0.635 -0.53975,0.61913 -0.53975,1.88913 0,1.25412 0.53975,1.905 0.53975,0.635 1.42875,0.635 z m 5.47688,-8.08038 v -1.93675 h 2.2225 v 1.93675 z m 0.127,9.42975 v -7.762875 h 1.98438 v 7.762875 z m 11.17599,0.15875 q -0.65087,0 -1.27,-0.11113 -0.60325,-0.11112 -1.11125,-0.30162 -0.508,-0.20637 -0.889,-0.508 l 0.508,-1.30175 q 0.39688,0.254 0.85725,0.4445 0.46038,0.1905 0.9525,0.28575 0.49213,0.0953 0.96838,0.0953 0.762,0 1.12712,-0.254 0.381,-0.26987 0.381,-0.6985 0,-0.36512 -0.254,-0.55562 -0.23812,-0.20638 -0.73025,-0.30163 l -1.5875,-0.30163 q -0.98425,-0.1905 -1.50812,-0.71437 -0.508,-0.53975 -0.508,-1.38113 0,-0.762 0.41275,-1.31762 0.42862,-0.555625 1.17475,-0.85725 0.74612,-0.301625 1.7145,-0.301625 0.55562,0 1.0795,0.111125 0.52387,0.09525 0.98425,0.301625 0.47625,0.1905 0.8255,0.508005 l -0.53975,1.30175 q -0.30163,-0.254 -0.6985,-0.42863 -0.39688,-0.1905 -0.8255,-0.28575 -0.41275,-0.11112 -0.80963,-0.11112 -0.77787,0 -1.15887,0.26987 -0.36513,0.26987 -0.36513,0.71438 0,0.33337 0.22225,0.55562 0.22225,0.22225 0.68263,0.30162 l 1.5875,0.30163 q 1.03187,0.1905 1.55575,0.6985 0.53975,0.508 0.53975,1.36525 0,0.77788 -0.41275,1.3335 -0.41275,0.55563 -1.15888,0.85725 -0.74612,0.28575 -1.74625,0.28575 z m 4.77839,-9.5885 v -1.93675 h 2.2225 v 1.93675 z m 0.127,9.42975 v -7.762875 h 1.98438 v 7.762875 z m 4.04811,0 V 95.964375 h 1.98438 v 6.731005 h 0.0317 l 3.12737,-3.302005 h 2.39713 l -3.90525,4.127505 v -0.8255 l 4.1275,4.46087 h -2.42888 l -3.31787,-3.46075 h -0.0317 v 3.46075 z m 12.17611,0.15875 q -1.31762,0 -2.27012,-0.49213 -0.9525,-0.49212 -1.47638,-1.39699 -0.508,-0.90488 -0.508,-2.14313 0,-1.2065 0.49213,-2.11138 0.508,-0.90487 1.38112,-1.41287 0.889,-0.523875 2.01613,-0.523875 1.11125,0 1.905,0.47625 0.79375,0.476245 1.22237,1.349375 0.4445,0.87312 0.4445,2.07963 v 0.58737 h -5.85787 v -1.143 h 4.46087 l -0.254,0.23812 q 0,-1.0795 -0.47625,-1.651 -0.47625,-0.58737 -1.36525,-0.58737 -0.66675,0 -1.143,0.3175 -0.46037,0.30163 -0.71437,0.87313 -0.23813,0.55562 -0.23813,1.3335 v 0.11112 q 0,0.87313 0.26988,1.44463 0.26987,0.5715 0.80962,0.85724 0.53975,0.28576 1.3335,0.28576 0.65088,0 1.30175,-0.1905 0.65088,-0.20638 1.19063,-0.635 l 0.55562,1.3335 q -0.55562,0.46037 -1.397,0.73025 -0.84137,0.26987 -1.68275,0.26987 z"
       id="text2-2"
       style="font-weight:bold;font-size:15.875px;line-height:0em;font-family:'Nunito Sans';-inkscape-font-specification:'Nunito Sans Bold';text-align:center;letter-spacing:0px;word-spacing:0px;text-anchor:middle;stroke-width:2.38125;stroke-miterlimit:10;paint-order:markers stroke fill"
       aria-label="pipi sike" /></g></svg>
